<?xml version="1.0" encoding="UTF-8" standalone="no"?>
<!-- Created with Inkscape (http://www.inkscape.org/) -->

<svg
   xmlns:dc="http://purl.org/dc/elements/1.1/"
   xmlns:cc="http://creativecommons.org/ns#"
   xmlns:rdf="http://www.w3.org/1999/02/22-rdf-syntax-ns#"
   xmlns:svg="http://www.w3.org/2000/svg"
   xmlns="http://www.w3.org/2000/svg"
   xmlns:sodipodi="http://sodipodi.sourceforge.net/DTD/sodipodi-0.dtd"
   xmlns:inkscape="http://www.inkscape.org/namespaces/inkscape"
   width="16"
   height="16"
   id="svg2"
   version="1.1"
   inkscape:version="0.48.4 r9939"
   sodipodi:docname="favicon.svg">
  <defs
     id="defs4" />
  <sodipodi:namedview
     id="base"
     pagecolor="#ffffff"
     bordercolor="#666666"
     borderopacity="1.0"
     inkscape:pageopacity="0.0"
     inkscape:pageshadow="2"
     inkscape:zoom="3.959798"
     inkscape:cx="-31.893754"
     inkscape:cy="-13.04654"
     inkscape:document-units="px"
     inkscape:current-layer="layer1"
     showgrid="false"
     fit-margin-top="0"
     fit-margin-left="0"
     fit-margin-right="0"
     fit-margin-bottom="0"
     inkscape:window-width="1918"
     inkscape:window-height="1060"
     inkscape:window-x="0"
     inkscape:window-y="18"
     inkscape:window-maximized="0" />
  <metadata
     id="metadata7">
    <rdf:RDF>
      <cc:Work
         rdf:about="">
        <dc:format>image/svg+xml</dc:format>
        <dc:type
           rdf:resource="http://purl.org/dc/dcmitype/StillImage" />
        <dc:title></dc:title>
      </cc:Work>
    </rdf:RDF>
  </metadata>
  <g
     inkscape:label="Layer 1"
     inkscape:groupmode="layer"
     id="layer1"
     transform="translate(-218.8168,-367.53076)">
    <g
       style="font-size:40px;font-style:normal;font-weight:normal;line-height:125%;letter-spacing:0px;word-spacing:0px;fill:#859900;fill-opacity:1;stroke:none;font-family:Sans"
       id="text2985"
       transform="translate(0.21909734,-1.0624328)">
      <path
         style="font-variant:normal;font-stretch:normal;fill:#859900;fill-opacity:1;font-family:Georgia;-inkscape-font-specification:Georgia"
         d="m 234.36942,376.61163 c 0.1168,0.95597 -0.90373,1.56441 -1.75538,1.3611 -1.60963,-0.28765 -3.17541,-0.79819 -4.80737,-0.97058 -0.53514,-0.13926 -0.73775,-0.0686 -0.29929,0.36236 1.00004,1.42702 2.36877,2.53989 3.405,3.93462 0.54342,0.67761 0.29033,1.75545 -0.53559,2.07399 -0.72324,0.41701 -1.62684,-0.045 -1.90582,-0.78095 -0.5201,-1.18708 -0.67994,-2.49556 -1.203,-3.68438 -0.22872,-0.42944 -0.48218,-1.56435 -0.73003,-1.5073 -0.61965,1.48255 -1.10871,3.01308 -1.55658,4.55432 -0.21879,0.74788 -0.75605,1.68248 -1.66541,1.56509 -0.85042,-0.037 -1.58963,-0.91597 -1.26101,-1.75689 0.44062,-1.0075 1.3479,-1.7052 2.0447,-2.53014 0.68542,-0.72772 1.3303,-1.49411 1.9104,-2.30874 -1.62969,0.13216 -3.21032,0.55482 -4.79294,0.93828 -0.74696,0.18607 -1.78013,0.28505 -2.23434,-0.48324 -0.36106,-0.72779 -0.13802,-1.80898 0.71868,-2.06146 1.05273,-0.27336 2.09634,0.22643 3.11776,0.44077 1.04899,0.24799 2.11912,0.39497 3.19084,0.50159 -1.08714,-1.53861 -2.48171,-2.81892 -3.67279,-4.26971 -0.54801,-0.63533 -0.44893,-1.73214 0.35614,-2.11211 0.66587,-0.47121 1.60501,-0.14119 1.94946,0.56151 0.62432,1.3399 0.83312,2.82962 1.41388,4.18916 0.18413,0.32833 0.3847,1.26639 0.5937,1.17511 0.64072,-1.39588 1.09285,-2.86398 1.50346,-4.34039 0.21429,-0.75511 0.58369,-1.72699 1.49476,-1.80176 0.89364,-0.0902 1.84283,0.81067 1.48834,1.72271 -0.40369,1.08785 -1.4308,1.74525 -2.11488,2.64046 -0.63248,0.72905 -1.24081,1.47865 -1.84019,2.23502 1.63102,-0.15486 3.2318,-0.50647 4.81764,-0.90536 0.75154,-0.19918 1.77008,-0.24643 2.20963,0.53215 0.11923,0.22118 0.1603,0.47597 0.16023,0.72477 z"
         id="path2990"
         inkscape:connector-curvature="0" />
    </g>
  </g>
</svg>
